<svg width="675" height="547" viewBox="0 0 675 547" fill="none" xmlns="http://www.w3.org/2000/svg">
<path d="M552.5 465.2H633.6V546.2H552.5V465.2Z" fill="white"/>
<path fill-rule="evenodd" clip-rule="evenodd" d="M674.8 0V240.5H604.7V86.2H604L562.2 240.5H506.9L465.2 86.2H464.5V240.5H394.4V57.2H290.1V93.6H358V148.9H290.2V240.5H216.1V192.2C204.4 223.9 170.9 240.5 136.5 240.5H0V0H131.8C195.2 0 208.7 35.6 208.7 60.2C208.7 84.5 196.9 97.7 179 107.4C194.4 112.7 208.9 123.1 216.1 141.3V0H499.9L534.3 141.5H534.9L569.3 0H674.8ZM74 93.6H113.3C128.8 93.6 138.6 89.2 138.6 73.7C138.6 61.6 128.4 57.2 113.3 57.2H74V93.6ZM146.6 160.3C146.6 146.2 138.2 138.4 120.7 138.4H74.2V183.2H117.6C133.2 183.2 146.6 178.9 146.6 160.3Z" fill="white"/>
<path d="M565.4 267.6L478.4 546.2H382.3L320.5 339H257.4V546.2H171.5V339H101.3V267.6H385.8L431.5 436.6H432.3L477.1 267.6H565.4Z" fill="white"/>
</svg>
